# xmcd
#
# Track frame offsets:
#	150
#	16440
#	29690
#	43695
#	64190
#	79052
#	92522
#	106367
#	120212
#	137610
#	151130
#	167255
#
# Disc length: 2456 seconds
#
# Revision: 0
# Processed by: cddbd v1.5.2PL0 Copyright (c) Steve Scherf et al.
# Submitted via: EZCDAudioConverter 2.3.5.1
#
DISCID=8909960c
DTITLE=김수희
DYEAR=1993
DGENRE=
TTITLE0=멍에
TTITLE1=못잊겠어요
TTITLE2=잃어버린 정 
TTITLE3=고독한 연인
TTITLE4=당신은 누구세요
TTITLE5=너무합니다
TTITLE6=마지막 포옹
TTITLE7=서울의 여인
TTITLE8=님
TTITLE9=대전 블루스
TTITLE10=나를 두고 아리랑
TTITLE11=고향초
EXTD=
EXTT0=
EXTT1=
EXTT2=
EXTT3=
EXTT4=
EXTT5=
EXTT6=
EXTT7=
EXTT8=
EXTT9=
EXTT10=
EXTT11=
PLAYORDER=
